<mxfile host="Electron" modified="2024-06-27T16:17:33.131Z" agent="Mozilla/5.0 (Windows NT 10.0; Win64; x64) AppleWebKit/537.36 (KHTML, like Gecko) draw.io/24.4.0 Chrome/120.0.6099.109 Electron/28.1.0 Safari/537.36" etag="zHpIhvoV5PE2rmAVkkQR" version="24.4.0" type="device">
  <diagram name="Page-1" id="HcNT-BJDHNxdpM-kkw_o">
    <mxGraphModel dx="283" dy="338" grid="1" gridSize="10" guides="1" tooltips="1" connect="1" arrows="1" fold="1" page="1" pageScale="1" pageWidth="850" pageHeight="1100" math="0" shadow="0">
      <root>
        <mxCell id="0" />
        <mxCell id="1" parent="0" />
        <mxCell id="8O6JOPj29UzpBkohyQUg-1" value="Actor" style="shape=umlActor;verticalLabelPosition=bottom;verticalAlign=top;html=1;outlineConnect=0;" parent="1" vertex="1">
          <mxGeometry x="60" y="240" width="70" height="140" as="geometry" />
        </mxCell>
        <mxCell id="8O6JOPj29UzpBkohyQUg-2" value="Add Note" style="ellipse;whiteSpace=wrap;html=1;" parent="1" vertex="1">
          <mxGeometry x="480" y="80" width="120" height="80" as="geometry" />
        </mxCell>
        <mxCell id="8O6JOPj29UzpBkohyQUg-3" value="Update Note" style="ellipse;whiteSpace=wrap;html=1;" parent="1" vertex="1">
          <mxGeometry x="470" y="240" width="120" height="80" as="geometry" />
        </mxCell>
        <mxCell id="8O6JOPj29UzpBkohyQUg-4" value="Delete Note" style="ellipse;whiteSpace=wrap;html=1;" parent="1" vertex="1">
          <mxGeometry x="470" y="370" width="120" height="80" as="geometry" />
        </mxCell>
        <mxCell id="8O6JOPj29UzpBkohyQUg-5" value="View" style="ellipse;whiteSpace=wrap;html=1;" parent="1" vertex="1">
          <mxGeometry x="260" y="240" width="120" height="80" as="geometry" />
        </mxCell>
        <mxCell id="8O6JOPj29UzpBkohyQUg-10" value="" style="endArrow=block;html=1;rounded=0;endFill=1;" parent="1" target="8O6JOPj29UzpBkohyQUg-5" edge="1">
          <mxGeometry width="50" height="50" relative="1" as="geometry">
            <mxPoint x="130" y="330" as="sourcePoint" />
            <mxPoint x="410" y="350" as="targetPoint" />
          </mxGeometry>
        </mxCell>
        <mxCell id="Z21A1PungeC8RqFokhcw-1" value="" style="endArrow=classic;html=1;rounded=0;exitX=1;exitY=0.5;exitDx=0;exitDy=0;entryX=0;entryY=0.5;entryDx=0;entryDy=0;entryPerimeter=0;dashed=1;dashPattern=8 8;" edge="1" parent="1" source="8O6JOPj29UzpBkohyQUg-5" target="8O6JOPj29UzpBkohyQUg-3">
          <mxGeometry relative="1" as="geometry">
            <mxPoint x="390" y="280" as="sourcePoint" />
            <mxPoint x="460" y="280" as="targetPoint" />
          </mxGeometry>
        </mxCell>
        <mxCell id="Z21A1PungeC8RqFokhcw-2" value="Extend" style="edgeLabel;resizable=0;html=1;;align=center;verticalAlign=middle;" connectable="0" vertex="1" parent="Z21A1PungeC8RqFokhcw-1">
          <mxGeometry relative="1" as="geometry" />
        </mxCell>
        <mxCell id="Z21A1PungeC8RqFokhcw-3" value="" style="endArrow=classic;html=1;rounded=0;exitX=0.903;exitY=0.825;exitDx=0;exitDy=0;entryX=0;entryY=0;entryDx=0;entryDy=0;dashed=1;dashPattern=8 8;exitPerimeter=0;" edge="1" parent="1" source="8O6JOPj29UzpBkohyQUg-5" target="8O6JOPj29UzpBkohyQUg-4">
          <mxGeometry relative="1" as="geometry">
            <mxPoint x="380" y="360" as="sourcePoint" />
            <mxPoint x="470" y="360" as="targetPoint" />
          </mxGeometry>
        </mxCell>
        <mxCell id="Z21A1PungeC8RqFokhcw-4" value="Extend" style="edgeLabel;resizable=0;html=1;;align=center;verticalAlign=middle;" connectable="0" vertex="1" parent="Z21A1PungeC8RqFokhcw-3">
          <mxGeometry relative="1" as="geometry" />
        </mxCell>
        <mxCell id="Z21A1PungeC8RqFokhcw-7" value="" style="endArrow=block;html=1;rounded=0;endFill=1;entryX=0.008;entryY=0.749;entryDx=0;entryDy=0;entryPerimeter=0;" edge="1" parent="1" source="8O6JOPj29UzpBkohyQUg-5" target="8O6JOPj29UzpBkohyQUg-2">
          <mxGeometry width="50" height="50" relative="1" as="geometry">
            <mxPoint x="140" y="405" as="sourcePoint" />
            <mxPoint x="270" y="400" as="targetPoint" />
          </mxGeometry>
        </mxCell>
      </root>
    </mxGraphModel>
  </diagram>
</mxfile>
